<svg width="50" height="53" viewBox="0 0 50 53" fill="none" xmlns="http://www.w3.org/2000/svg">
<path fill-rule="evenodd" clip-rule="evenodd" d="M24.9991 7.19369e-07C21.731 -0.00100318 18.5485 1.04875 15.919 2.9952C13.2894 4.94164 11.3511 7.68225 10.3887 10.8148C9.42628 13.9473 9.49036 17.3068 10.5715 20.4001C11.6527 23.4934 13.694 26.1577 16.3959 28.0018C11.7067 29.7268 7.63941 32.8199 4.71758 36.8829C1.79576 40.9459 0.153073 45.7929 0.000938714 50.8002C-0.0156435 51.3546 0.188029 51.8928 0.567149 52.2966C0.94627 52.7004 1.46978 52.9366 2.02252 52.9532C2.57526 52.9698 3.11195 52.7655 3.51452 52.3853C3.91709 52.005 4.15257 51.48 4.16915 50.9256C4.33463 45.4948 6.60189 40.3421 10.4905 36.5593C14.379 32.7765 19.5833 30.661 25.0005 30.661C30.4177 30.661 35.622 32.7765 39.5105 36.5593C43.3991 40.3421 45.6664 45.4948 45.8318 50.9256C45.834 51.2039 45.8915 51.479 46.001 51.7347C46.1105 51.9905 46.2699 52.2217 46.4697 52.4148C46.6695 52.608 46.9058 52.7591 47.1646 52.8595C47.4234 52.9598 47.6997 53.0073 47.977 52.9991C48.2544 52.9909 48.5274 52.9273 48.7799 52.8119C49.0324 52.6965 49.2595 52.5317 49.4476 52.3271C49.6358 52.1226 49.7814 51.8824 49.8757 51.6207C49.9701 51.3589 50.0115 51.0809 49.9973 50.803C49.8457 45.7952 48.2033 40.9476 45.2814 36.884C42.3595 32.8205 38.292 29.727 33.6023 28.0018C36.3042 26.1577 38.3455 23.4934 39.4267 20.4001C40.5079 17.3068 40.5719 13.9473 39.6095 10.8148C38.6471 7.68225 36.7088 4.94164 34.0793 2.9952C31.4497 1.04875 28.2673 -0.00100318 24.9991 7.19369e-07ZM13.8839 15.329C13.8839 12.3722 15.0549 9.53661 17.1394 7.4459C19.224 5.35518 22.0512 4.18063 24.9991 4.18063C27.9471 4.18063 30.7743 5.35518 32.8588 7.4459C34.9433 9.53661 36.1143 12.3722 36.1143 15.329C36.1143 18.2857 34.9433 21.1213 32.8588 23.212C30.7743 25.3027 27.9471 26.4773 24.9991 26.4773C22.0512 26.4773 19.224 25.3027 17.1394 23.212C15.0549 21.1213 13.8839 18.2857 13.8839 15.329Z" fill="black"/>
</svg>
