<svg width="35" height="35" viewBox="0 0 35 35" xmlns="http://www.w3.org/2000/svg">
<path fill-rule="evenodd" clip-rule="evenodd" d="M17.5 0C17.9801 0 18.4406 0.190732 18.7801 0.530237C19.1196 0.869743 19.3103 1.33021 19.3103 1.81034V15.6897H33.1897C33.6698 15.6897 34.1303 15.8804 34.4698 16.2199C34.8093 16.5594 35 17.0199 35 17.5C35 17.9801 34.8093 18.4406 34.4698 18.7801C34.1303 19.1196 33.6698 19.3103 33.1897 19.3103H19.3103V33.1897C19.3103 33.6698 19.1196 34.1303 18.7801 34.4698C18.4406 34.8093 17.9801 35 17.5 35C17.0199 35 16.5594 34.8093 16.2199 34.4698C15.8804 34.1303 15.6897 33.6698 15.6897 33.1897V19.3103H1.81034C1.33021 19.3103 0.869743 19.1196 0.530237 18.7801C0.190732 18.4406 0 17.9801 0 17.5C0 17.0199 0.190732 16.5594 0.530237 16.2199C0.869743 15.8804 1.33021 15.6897 1.81034 15.6897H15.6897V1.81034C15.6897 1.33021 15.8804 0.869743 16.2199 0.530237C16.5594 0.190732 17.0199 0 17.5 0Z" fill="black"/>
</svg>
